<svg width="36" height="23" viewBox="0 0 36 23" fill="none" xmlns="http://www.w3.org/2000/svg">
<path d="M32.9996 3.02609H22.4998V0H32.9996V3.02609ZM35.5886 18.1565C34.9256 20.1189 32.5451 22.6957 27.9372 22.6957C23.3262 22.6957 19.5913 20.0796 19.5913 14.1091C19.5913 8.19313 23.0788 5.15191 27.7902 5.15191C32.4132 5.15191 35.2361 7.84816 35.8526 11.8486C35.9696 12.6142 36.0161 13.6461 35.9951 15.0866H23.9547C24.1497 19.9449 29.1792 20.0978 30.8367 18.1565H35.5886ZM24.0597 12.1043H31.5072C31.3497 9.76367 29.8032 8.7469 27.7917 8.7469C25.5927 8.7469 24.3762 9.90892 24.0597 12.1043ZM9.6989 22.6775H0V0.0317738H10.4294C18.6433 0.15433 18.7993 8.26878 14.5093 10.4809C19.7008 12.3873 19.8748 22.6775 9.6989 22.6775V22.6775ZM4.49995 9.07826H9.87589C13.6379 9.07826 14.2348 4.53913 9.4079 4.53913H4.49995V9.07826V9.07826ZM9.5864 13.6174H4.49995V18.1807H9.5114C14.0938 18.1807 13.8134 13.6174 9.5864 13.6174V13.6174Z" fill="black"/>
</svg>
