<svg width="28" height="23" viewBox="0 0 28 23" fill="none" xmlns="http://www.w3.org/2000/svg">
<path d="M28 2.72288C26.9698 3.18514 25.8627 3.49646 24.7007 3.63679C25.8872 2.91863 26.7983 1.78066 27.2265 0.424528C26.117 1.08962 24.8873 1.57311 23.5783 1.83373C22.5318 0.705189 21.0373 0 19.3853 0C15.6765 0 12.9512 3.49764 13.7888 7.12854C9.016 6.88679 4.78333 4.57547 1.9495 1.0625C0.4445 3.67217 1.169 7.08608 3.72633 8.81486C2.786 8.7842 1.89933 8.52358 1.12583 8.08844C1.06283 10.7783 2.97033 13.2948 5.733 13.855C4.9245 14.0766 4.039 14.1285 3.13833 13.954C3.86867 16.2606 5.98967 17.9387 8.505 17.9858C6.09 19.8998 3.04733 20.7547 0 20.3915C2.54217 22.0389 5.56267 23 8.806 23C19.4717 23 25.4975 13.895 25.1335 5.72877C26.2558 4.9092 27.23 3.88679 28 2.72288V2.72288Z" fill="black"/>
</svg>
